<?xml version="1.0" encoding="utf-8"?>
<!-- Generator: Adobe Illustrator 21.1.0, SVG Export Plug-In . SVG Version: 6.00 Build 0)  -->
<svg version="1.0" id="Layer_1" xmlns="http://www.w3.org/2000/svg" xmlns:xlink="http://www.w3.org/1999/xlink" x="0px" y="0px"
	 width="1080px" height="477px" viewBox="0 0 1080 477" enable-background="new 0 0 1080 477" xml:space="preserve">
<g>
	<g>
		<path fill="#43B39F" d="M390.056,330.401V155.314c0-52.36-11.417-87.681-34.25-105.946
			c-20.095-16.133-56.935-24.205-110.514-24.205h-80.831c-54.501,0-91.49,7.919-110.971,23.747
			c-22.224,17.965-33.336,53.431-33.336,106.404v189.973h54.345v-141.11v-48.406c0.301-35.621,7.764-58.603,22.376-68.957
			c11.565-8.522,36.532-12.788,74.892-12.788h65.304c38.966,0,64.234,4.11,75.807,12.331c14.613,10.045,22.072,33.187,22.376,69.414
			l0.457,48.406v16.686h2.916C344.613,292.702,372.044,320.078,390.056,330.401z"/>
	</g>
	<g>
		<path fill="#15849F" d="M505.155,293.529v0.61H482.29c-29.531,0-50.461-3.345-62.792-10.045
			c-12.327-6.693-20.169-18.266-23.517-34.707c-1.217-6.077-2.073-15.75-2.595-28.769l-0.472-47.495
			c0.753-38.367,5.112-63.666,13.112-75.807c11.874-17.957,39.119-27.401,81.746-28.311c21.919-0.301,35.769-0.457,41.556-0.457
			l53.887,0.457c19.18,0,35.164,3.196,47.949,9.588c17.047,8.834,25.576,22.079,25.576,39.732h55.712
			c0.301-38.662-14.007-65.304-42.928-79.917c-20.399-10.346-52.059-15.527-94.986-15.527h-88.595
			c-44.147,0-76.647,5.478-97.495,16.438c-20.86,10.963-34.786,29.229-41.787,54.802c-4.634,17.257-7.287,43.661-8.002,79.003
			H118.644v47.495h220.518c2.377,44.054,10.798,74.531,25.307,91.334c18.876,22.228,57.541,33.336,115.995,33.336h24.69v0.22
			h554.691v-51.979H505.155z"/>
		<path fill="#15849F" d="M704.621,280.318c5.523-19.407,8.288-44.479,8.288-75.227v-31.968H527.46v47.495h128.366
			c0,29.997-4.623,49.808-13.735,59.7H704.621z"/>
	</g>
	<g>
		<path fill="#97847C" d="M1017.375,38.865c-19.18-10.346-54.345-15.527-105.489-15.527h-52.973
			c-44.753,0-77.94,6.091-99.554,18.266c-26.091,14.985-40.247,40.257-42.552,75.738h56.549
			c2.608-19.305,12.657-32.261,30.299-38.749c11.261-4.567,32.425-6.849,63.479-6.849h56.626c26.487,0,45.358,2.895,56.627,8.678
			c16.441,8.217,24.658,24.052,24.658,47.492c0,31.968-25.115,49.777-75.35,53.43c-46.886,2.739-93.615,5.482-140.196,8.221
			c-50.035,10.916-75.132,41.18-75.331,90.754h61.272c0.075-5.428,0.194-9.826,0.36-13.119c0-14.616,10.502-24.963,31.507-31.054
			c11.261-3.348,27.096-5.482,47.495-6.396c29.226-0.606,58.455-1.212,87.68-1.825c35.919-2.434,63.018-9.741,81.288-21.919
			c24.045-15.527,36.075-40.486,36.075-74.896C1059.845,84.532,1045.69,53.783,1017.375,38.865z"/>
	</g>
	<path fill="#97847C" d="M24.393,452.133v-67.61h6.142v67.61H24.393z"/>
	<path fill="#97847C" d="M80.867,452.133v-61.837H62.256v-5.773h43.41v5.773H87.009v61.837H80.867z"/>
	<path fill="#97847C" d="M240.37,396.9c-3.355-2.893-6.789-5.034-10.298-6.419s-7.204-2.078-11.084-2.078
		c-8.745,0-15.848,2.771-21.311,8.313c-5.466,5.542-8.199,12.762-8.199,21.659c0,4.463,0.668,8.481,2.01,12.053
		c1.337,3.572,3.377,6.742,6.118,9.513c2.708,2.708,5.811,4.773,9.307,6.188c3.493,1.415,7.242,2.124,11.244,2.124
		c3.879,0,7.666-0.663,11.361-1.986c3.695-1.323,7.188-3.279,10.483-5.865v7.204c-3.325,2.032-6.843,3.594-10.551,4.689
		c-3.711,1.092-7.384,1.638-11.016,1.638c-4.895,0-9.576-0.877-14.039-2.632c-4.463-1.755-8.296-4.219-11.499-7.389
		c-3.295-3.263-5.789-7.049-7.481-11.361c-1.692-4.311-2.54-9.035-2.54-14.178c0-5.05,0.869-9.761,2.611-14.132
		c1.739-4.371,4.241-8.144,7.503-11.314c3.17-3.11,6.998-5.542,11.475-7.297c4.482-1.755,9.138-2.632,13.971-2.632
		c4.311,0,8.304,0.592,11.983,1.779c3.681,1.184,7.028,2.961,10.046,5.333L240.37,396.9z"/>
	<path fill="#97847C" d="M337.871,418.467c0,4.773-0.91,9.304-2.727,13.602c-1.817,4.292-4.436,8.12-7.854,11.475
		c-3.483,3.388-7.411,5.966-11.784,7.737c-4.376,1.768-8.997,2.654-13.863,2.654c-4.868,0-9.483-0.886-13.841-2.654
		c-4.36-1.771-8.264-4.349-11.716-7.737c-3.45-3.417-6.074-7.259-7.878-11.524c-1.804-4.262-2.703-8.78-2.703-13.553
		c0-4.833,0.899-9.397,2.703-13.694c1.804-4.292,4.428-8.15,7.878-11.567c3.39-3.355,7.256-5.895,11.6-7.62
		c4.344-1.725,8.997-2.586,13.958-2.586c4.99,0,9.665,0.869,14.023,2.611c4.36,1.739,8.234,4.27,11.624,7.595
		c3.45,3.417,6.074,7.275,7.878,11.567C336.969,409.071,337.871,413.634,337.871,418.467z M301.643,448.439
		c4.004,0,7.794-0.739,11.369-2.217c3.572-1.478,6.794-3.632,9.66-6.465c2.803-2.863,4.952-6.118,6.446-9.769
		c1.494-3.646,2.241-7.487,2.241-11.521c0-4.064-0.739-7.905-2.219-11.521c-1.478-3.618-3.635-6.876-6.468-9.769
		c-2.806-2.833-6.004-4.988-9.592-6.465c-3.589-1.478-7.403-2.217-11.437-2.217c-4.007,0-7.783,0.739-11.325,2.217
		c-3.542,1.478-6.748,3.632-9.614,6.465c-2.833,2.926-4.99,6.18-6.468,9.769c-1.48,3.586-2.219,7.427-2.219,11.521
		c0,4.064,0.739,7.905,2.219,11.521c1.478,3.618,3.635,6.876,6.468,9.769c2.836,2.863,6.009,5.026,9.522,6.487
		C293.738,447.708,297.544,448.439,301.643,448.439z"/>
	<path fill="#97847C" d="M364.9,452.133v-70.473l47.89,56.572v-53.709h5.727v69.595l-47.844-56.665v54.679H364.9z"/>
	<path fill="#97847C" d="M462.447,440.773l5.265-2.817c0.986,3.325,2.687,5.903,5.102,7.734c2.418,1.834,5.319,2.749,8.707,2.749
		c4.279,0,7.62-1.263,10.021-3.787s3.602-6.02,3.602-10.483c0-3.263-0.81-5.974-2.423-8.128c-1.619-2.154-5.088-4.648-10.415-7.481
		c-6.805-3.602-11.331-6.772-13.577-9.513s-3.371-6.033-3.371-9.883c0-4.803,1.625-8.712,4.871-11.73
		c3.249-3.018,7.46-4.526,12.632-4.526c3.388,0,6.335,0.714,8.845,2.149c2.507,1.429,4.547,3.578,6.118,6.441l-4.757,2.863
		c-0.986-1.94-2.377-3.417-4.181-4.433c-1.798-1.016-3.931-1.524-6.395-1.524c-3.325,0-5.974,0.978-7.943,2.934
		c-1.97,1.953-2.956,4.594-2.956,7.919c0,4.74,3.909,9.16,11.73,13.254c1.415,0.739,2.494,1.309,3.233,1.709
		c5.756,3.17,9.606,6.164,11.545,8.984c1.94,2.814,2.909,6.471,2.909,10.967c0,6.066-1.771,10.874-5.311,14.433
		c-3.54,3.553-8.359,5.333-14.455,5.333c-4.433,0-8.228-1.1-11.385-3.301C466.704,448.431,464.232,445.144,462.447,440.773z"/>
	<path fill="#97847C" d="M547.156,384.524h6.05v44.149c0,6.68,1.524,11.646,4.572,14.892c3.048,3.249,7.712,4.874,13.993,4.874
		c6.188,0,10.806-1.625,13.854-4.874c3.048-3.246,4.572-8.212,4.572-14.892v-44.149h6.142v42.164c0,9.144-2.032,15.971-6.096,20.48
		c-4.064,4.512-10.222,6.767-18.473,6.767c-8.283,0-14.455-2.255-18.519-6.767c-4.064-4.509-6.096-11.336-6.096-20.48V384.524z"/>
	<path fill="#97847C" d="M647.105,452.133v-67.61h6.142v61.837h23.183v5.773H647.105z"/>
	<path fill="#97847C" d="M748.694,452.133v-61.837h-18.611v-5.773h43.411v5.773h-18.657v61.837H748.694z"/>
	<path fill="#97847C" d="M838.737,452.133v-67.61h6.142v67.61H838.737z"/>
	<path fill="#97847C" d="M905.02,452.133v-70.473l47.89,56.572v-53.709h5.727v69.595l-47.844-56.665v54.679H905.02z"/>
	<path fill="#97847C" d="M1046.694,401.519c-2.741-4.249-6.112-7.465-10.114-9.652c-4.001-2.187-8.514-3.279-13.531-3.279
		c-8.375,0-15.194,2.833-20.458,8.497c-5.265,5.664-7.897,13.007-7.897,22.029c0,4.034,0.701,7.835,2.103,11.407
		c1.399,3.572,3.439,6.742,6.118,9.513c2.708,2.741,5.743,4.795,9.098,6.167c3.355,1.369,7.036,2.054,11.037,2.054
		c7.574,0,13.74-2.233,18.494-6.696c4.759-4.463,7.199-10.298,7.321-17.503h-23.322v-5.311h30.064v0.739
		c0,10.777-2.939,19.211-8.821,25.307c-5.881,6.096-13.977,9.144-24.291,9.144c-10.252,0-18.549-3.263-24.892-9.79
		c-6.343-6.528-9.513-15.085-9.513-25.677c0-4.865,0.801-9.459,2.401-13.786c1.6-4.325,3.909-8.087,6.927-11.29
		c3.263-3.48,6.952-6.08,11.059-7.805c4.113-1.725,8.69-2.586,13.74-2.586c6.865,0,12.746,1.239,17.641,3.719
		c4.895,2.478,8.666,6.118,11.314,10.921L1046.694,401.519z"/>
</g>
</svg>
